#!OML:ASF Y:\EmotionMaleHayes\Project 1\Capture day 1\Session 1\Male1.ASF
:FULLY-SPECIFIED
:DEGREES
1112
root 24.2942 16.9603 1.43043 891.784 58.0569 894.603
lowerback 5.8839 -0.640965 -0.385502
upperback 2.42279 -0.702676 3.39129
thorax -0.755024 -0.312854 3.75759
lowerneck -22.9566 -4.8084 -0.734975
upperneck 10.1238 -6.66887 3.10328
head 6.91746 -2.90343 0.318588
rclavicle -1.81888e-014 2.54444e-014
rhumerus -19.9497 0.57938 -69.3114
rradius 36.9347
rwrist 3.82213
rhand -12.2791 -34.8847
rfingers 7.12502
rthumb 13.788 -64.4078
lclavicle -1.81888e-014 2.54444e-014
lhumerus -23.6494 7.31371 61.5153
lradius 19.0744
lwrist -27.5725
lhand -16.3675 -29.8494
lfingers 7.12502
lthumb 9.8456 -0.0995844
rfemur 4.23063 -17.5597 20.1708
rtibia 8.0764
rfoot -16.6292 -4.38178
rtoes 33.1244
lfemur 5.60814 21.042 -8.73421
ltibia 54.2208
lfoot -1.58793 -3.98874
ltoes -10.4905
1113
root 24.3801 16.9585 1.40842 891.792 58.4553 895.081
lowerback 5.96104 -0.536678 -0.357865
upperback 2.47826 -0.559361 3.41318
thorax -0.750638 -0.240385 3.75623
lowerneck -22.9502 -4.69052 -0.803442
upperneck 10.0591 -6.49722 3.17648
head 6.89723 -2.81752 0.375664
rclavicle 4.19436e-014 -3.18055e-015
rhumerus -18.5952 0.586575 -69.401
rradius 36.9131
rwrist 4.16907
rhand -12.162 -34.9974
rfingers 7.12502
rthumb 13.9009 -64.5128
lclavicle 4.19436e-014 -3.18055e-015
lhumerus -24.4066 6.3631 60.3705
lradius 19.9616
lwrist -23.0266
lhand -16.6185 -29.5155
lfingers 7.12502
lthumb 9.6034 0.245632
rfemur 5.21387 -17.0842 20.4933
rtibia 7.65756
rfoot -16.7713 -4.44837
rtoes 32.8252
lfemur 5.43086 21.5472 -7.71353
ltibia 54.5656
lfoot -2.24921 -3.1086
ltoes -6.56966
1114
root 24.4652 16.9584 1.38341 891.539 58.8496 895.165
lowerback 5.99908 -0.385242 -0.369029
upperback 2.42772 -0.365849 3.2662
thorax -0.838199 -0.144834 3.59783
lowerneck -22.8269 -4.67642 -0.858831
upperneck 10.141 -6.48935 3.31549
head 6.91214 -2.80304 0.431774
rclavicle 1.08437e-013 -7.95139e-015
rhumerus -17.6181 0.438568 -69.6277
rradius 37.1105
rwrist 4.33913
rhand -12.2993 -34.7791
rfingers 7.12502
rthumb 13.7686 -64.3035
lclavicle 1.08437e-013 -7.95139e-015
lhumerus -25.3496 4.81036 59.2429
lradius 20.9837
lwrist -18.155
lhand -17.2761 -29.7262
lfingers 7.12502
lthumb 8.96897 0.0631091
rfemur 6.20904 -16.642 20.5597
rtibia 7.06427
rfoot -16.7549 -4.42376
rtoes 32.4374
lfemur 5.23438 21.8961 -7.07726
ltibia 54.7314
lfoot -3.57715 -1.86528
ltoes -6.54584
1115
root 24.5472 16.9617 1.35644 891.197 59.1864 895.034
lowerback 5.94303 -0.237286 -0.453519
upperback 2.34814 -0.18499 3.09232
thorax -0.901277 -0.0571178 3.45297
lowerneck -22.8491 -4.75157 -0.91019
upperneck 10.4038 -6.60269 3.39709
head 7.00968 -2.84721 0.448314
rclavicle 8.15017e-015 1.59028e-015
rhumerus -16.6185 0.41942 -69.8134
rradius 37.2931
rwrist 4.49987
rhand -12.0791 -34.8765
rfingers 7.12502
rthumb 13.9808 -64.3864
lclavicle 8.15017e-015 1.59028e-015
lhumerus -26.3147 3.3128 58.2228
lradius 22.0865
lwrist -13.3778
lhand -17.9653 -29.6204
lfingers 7.12502
lthumb 8.30379 0.196378
rfemur 7.03613 -16.3293 20.4673
rtibia 6.58813
rfoot -16.759 -4.2681
rtoes 32.6239
lfemur 4.94295 22.157 -6.66729
ltibia 54.7095
lfoot -4.60512 -0.662735
ltoes -6.56184
1116
root 24.6285 16.9637 1.32972 891.011 59.5642 895.169
lowerback 6.02166 -0.125918 -0.403806
upperback 2.29103 -0.038649 2.97381
thorax -1.01352 0.0159438 3.29267
lowerneck -23.0019 -4.76092 -0.846758
upperneck 10.6796 -6.63128 3.29079
head 7.11934 -2.86235 0.393592
rclavicle -5.09883e-014 1.27222e-014
rhumerus -15.5005 0.748835 -70.0221
rradius 37.311
rwrist 4.72442
rhand -11.6796 -35.1913
rfingers 7.12502
rthumb 14.3658 -64.6742
lclavicle -5.09883e-014 1.27222e-014
lhumerus -27.0609 3.3626 56.8649
lradius 22.7441
lwrist -10.2025
lhand -18.5001 -28.9881
lfingers 7.12502
lthumb 7.78764 0.84853
rfemur 7.77177 -16.2117 20.4585
rtibia 6.49553
rfoot -17.0014 -3.91375
rtoes 32.8007
lfemur 4.84014 22.5287 -5.96122
ltibia 54.4274
lfoot -5.36301 0.493069
ltoes -6.96792
1117
root 24.7121 16.965 1.30031 890.399 59.8516 894.839
lowerback 6.06491 -0.0301029 -0.565644
upperback 2.27577 0.070254 2.77667
thorax -1.05982 0.0679181 3.1725
lowerneck -23.1983 -4.79245 -0.979568
upperneck 10.9407 -6.65553 3.35115
head 7.24439 -2.86659 0.423878
rclavicle -3.12092e-014 -7.95139e-015
rhumerus -14.4148 1.08452 -70.3171
rradius 37.3788
rwrist 4.74208
rhand -11.3156 -35.8309
rfingers 7.12502
rthumb 14.7164 -65.2886
lclavicle -3.12092e-014 -7.95139e-015
lhumerus -27.7977 3.47911 55.5272
lradius 23.4837
lwrist -7.18677
lhand -19.0957 -28.0967
lfingers 7.12502
lthumb 7.21277 1.76033
rfemur 8.509 -16.4165 20.0246
rtibia 6.61171
rfoot -17.3308 -3.35716
rtoes 31.316
lfemur 4.81814 22.7018 -5.5883
ltibia 53.9453
lfoot -6.01457 0.591741
ltoes -1.97303
1118
root 24.7949 16.9687 1.27148 890.089 60.1461 894.734
lowerback 5.90718 0.0994712 -0.604734
upperback 2.30567 0.231831 2.63425
thorax -0.950626 0.145783 3.03581
lowerneck -23.1802 -4.66716 -1.12233
upperneck 10.9673 -6.43568 3.2924
head 7.24798 -2.77494 0.455247
rclavicle -8.88567e-014 -3.02153e-014
rhumerus -13.317 1.26749 -70.5417
rradius 37.6028
rwrist 4.4028
rhand -11.5391 -36.1766
rfingers 7.12502
rthumb 14.5011 -65.6498
lclavicle -8.88567e-014 -3.02153e-014
lhumerus -28.4919 3.23022 54.4618
lradius 24.464
lwrist -3.89931
lhand -19.8952 -27.0845
lfingers 7.12502
lthumb 6.44103 2.79756
rfemur 9.21319 -16.4667 19.846
rtibia 6.47627
rfoot -17.7399 -3.09099
rtoes 27.9365
lfemur 4.47683 22.2701 -5.42772
ltibia 53.84
lfoot -7.72971 2.04657
ltoes -0.143787
1119
root 24.8657 16.9752 1.24109 890.125 60.5634 894.889
lowerback 5.76249 0.261136 -0.342077
upperback 2.26286 0.452577 2.46807
thorax -0.924099 0.255248 2.70123
lowerneck -23.655 -4.8103 -1.10313
upperneck 11.4519 -6.60923 3.02525
head 7.4769 -2.87059 0.326484
rclavicle -2.09966e-014 -1.27222e-014
rhumerus -12.3604 1.40785 -70.7807
rradius 37.9413
rwrist 4.17423
rhand -12.4251 -35.2342
rfingers 7.12502
rthumb 13.6473 -64.7668
lclavicle -2.09966e-014 -1.27222e-014
lhumerus -29.0689 3.57655 53.1943
lradius 25.1691
lwrist -1.59207
lhand -20.7129 -26.748
lfingers 7.12502
lthumb 5.65157 3.15659
rfemur 9.73701 -16.3126 19.9515
rtibia 6.2564
rfoot -18.4295 -2.92631
rtoes 25.5517
lfemur 3.93339 21.5515 -5.4064
ltibia 54.2574
lfoot -9.67549 0.328843
ltoes 17.3305
1120
root 24.9415 16.98 1.21007 890.017 61.031 894.902
lowerback 5.61015 0.384307 -0.114031
upperback 2.16836 0.614938 2.19149
thorax -0.9397 0.334431 2.2771
lowerneck -23.9221 -4.88908 -0.884757
upperneck 11.9126 -6.77151 2.83051
head 7.66178 -2.94703 0.194835
rclavicle -1.48095e-014 7.95139e-015
rhumerus -11.4131 1.65645 -71.2639
rradius 38.0246
rwrist 4.13877
rhand -13.0804 -34.3475
rfingers 7.12502
rthumb 13.0157 -63.9214
lclavicle -1.48095e-014 7.95139e-015
lhumerus -29.8249 3.68334 51.7629
lradius 25.827
lwrist 0.537109
lhand -21.6299 -26.5755
lfingers 7.12502
lthumb 4.7661 3.35089
rfemur 10.3 -16.1065 19.9703
rtibia 6.05119
rfoot -17.9999 -2.13576
rtoes 32.8565
lfemur 3.46705 22.0926 -5.26219
ltibia 52.7982
lfoot -9.09676 3.10794
ltoes -5.62154
1121
root 25.0299 16.9809 1.18428 890.222 61.5795 895.392
lowerback 6.92446 0.535714 0.295868
upperback 0.987728 0.846899 1.96187
thorax -2.88837 0.448627 1.77798
lowerneck -22.8312 -4.80261 -0.958765
upperneck 12.658 -6.68828 2.85109
head 7.73891 -2.91653 0.235375
rclavicle 6.41826e-014 5.96354e-014
rhumerus -12.2522 2.65264 -71.8388
rradius 38.2316
rwrist 3.74295
rhand -13.4895 -34.2644
rfingers 7.12502
rthumb 12.6213 -63.8631
lclavicle 6.41826e-014 5.96354e-014
lhumerus -32.1122 1.99824 50.4845
lradius 26.891
lwrist 3.24119
lhand -22.7815 -26.0735
lfingers 7.12502
lthumb 3.65412 3.87489
rfemur 11.0044 -15.7307 20.3211
rtibia 5.78864
rfoot -17.9899 -1.86008
rtoes 33.81
lfemur 3.27192 22.1341 -4.65189
ltibia 52.1977
lfoot -9.63081 4.09363
ltoes -9.04115
1122
root 25.1059 16.9829 1.15627 890.232 62.1225 895.524
lowerback 5.79055 0.661234 0.329749
upperback 1.71012 0.99662 1.92182
thorax -1.51484 0.522554 1.7198
lowerneck -23.6981 -4.66349 -0.810602
upperneck 12.5301 -6.4826 2.58627
head 7.81702 -2.82881 0.136563
rclavicle -4.10564e-014 -1.35174e-014
rhumerus -10.1604 2.68876 -72.0518
rradius 38.5582
rwrist 3.69564
rhand -13.3819 -34.4343
rfingers 7.12502
rthumb 12.725 -64.0266
lclavicle -4.10564e-014 -1.35174e-014
lhumerus -31.8645 3.07094 49.5792
lradius 27.4606
lwrist 5.13322
lhand -24.0975 -25.5845
lfingers 7.12502
lthumb 2.38324 4.38192
rfemur 11.5123 -15.411 20.4725
rtibia 5.59356
rfoot -18.0245 -1.76666
rtoes 33.7732
lfemur 2.89762 22.0883 -4.36846
ltibia 51.5385
lfoot -9.94482 5.41483
ltoes -9.73154
1123
root 25.1756 16.9869 1.12624 890.05 62.6262 895.373
lowerback 6.2206 0.840491 0.456796
upperback 1.14062 1.23783 1.69333
thorax -2.33965 0.63749 1.3849
lowerneck -23.7648 -4.64302 -0.732853
upperneck 13.4185 -6.4642 2.27375
head 8.11343 -2.83753 0.00866854
rclavicle -3.55825e-014 -9.54166e-015
rhumerus -10.3708 2.9803 -72.4466
rradius 39.3898
rwrist 3.70967
rhand -12.9945 -34.7702
rfingers 7.12502
rthumb 13.0985 -64.3389
lclavicle -3.55825e-014 -9.54166e-015
lhumerus -33.1066 3.04286 48.3506
lradius 28.1539
lwrist 6.47997
lhand -25.2581 -25.4734
lfingers 7.12502
lthumb 1.26234 4.50263
rfemur 11.9717 -15.1044 20.4717
rtibia 5.31742
rfoot -18.0708 -1.65691
rtoes 33.2533
lfemur 2.5013 22.0096 -4.27397
ltibia 50.7677
lfoot -10.1543 6.92714
ltoes -10.7046
1124
root 25.2531 16.992 1.09824 890.194 63.1674 895.687
lowerback 5.22563 0.939842 0.57156
upperback 1.70228 1.35947 1.66352
thorax -1.20643 0.699971 1.30254
lowerneck -24.2491 -4.57054 -0.741673
upperneck 13.3298 -6.34005 2.20044
head 8.15763 -2.78228 -0.0056384
rclavicle -1.54369e-014 7.95139e-015
rhumerus -8.52876 4.24892 -72.4998
rradius 39.6472
rwrist 2.50714
rhand -13.1624 -35.1077
rfingers 7.12502
rthumb 12.9366 -64.6866
lclavicle -1.54369e-014 7.95139e-015
lhumerus -32.9901 5.1337 47.0267
lradius 28.1815
lwrist 6.72954
lhand -26.2281 -25.9763
lfingers 7.12502
lthumb 0.325483 4.00323
rfemur 12.5728 -14.6296 20.7952
rtibia 4.89068
rfoot -18.082 -1.61223
rtoes 33.1508
lfemur 2.30744 21.8251 -3.87009
ltibia 49.8985
lfoot -10.5515 7.52488
ltoes -12.8558
1125
root 25.3151 16.991 1.06207 890.304 64.0862 895.656
lowerback 4.70046 1.19076 0.878887
upperback 1.71567 1.69112 1.47532
thorax -0.891646 0.864225 0.928877
lowerneck -23.9751 -4.64242 -1.312
upperneck 13.1363 -6.3416 2.70814
head 8.08527 -2.76373 0.26155
rclavicle 4.57267e-014 1.27222e-014
rhumerus -7.58229 4.87953 -72.7987
rradius 40.1555
rwrist 1.95674
rhand -13.3233 -35.0696
rfingers 7.12502
rthumb 12.7815 -64.6583
lclavicle 4.57267e-014 1.27222e-014
lhumerus -33.3993 6.27182 45.7613
lradius 28.3478
lwrist 7.27343
lhand -27.1808 -26.5781
lfingers 7.12502
lthumb -0.594732 3.40084
rfemur 12.5679 -14.4275 20.859
rtibia 5.03413
rfoot -18.0486 -0.919664
rtoes 33.1366
lfemur 1.86687 21.7596 -3.90301
ltibia 48.9056
lfoot -11.2968 7.64698
ltoes -12.3686
